<svg xmlns="http://www.w3.org/2000/svg" data-name="Icon Color" viewBox="0 0 64 64" id="burger"><path fill="#e5a344" d="M52 32.51H11.8a2.88 2.88 0 01-2.88-2.89V28.09A12.37 12.37 0 0121.29 15.72H42.54A12.37 12.37 0 0154.92 28.09v1.53A2.89 2.89 0 0152 32.51zM52 60.75H11.8a2.88 2.88 0 01-2.88-2.88V53.6A1.59 1.59 0 0110.51 52H53.32a1.6 1.6 0 011.6 1.59v4.27A2.89 2.89 0 0152 60.75z"></path><path fill="#e83c4d" d="M54.92,46v.87a4.88,4.88,0,0,0-2.27-.54,3.92,3.92,0,0,0-3.73,2,6.89,6.89,0,0,0-2.12-.32,6.74,6.74,0,0,0-2.15.33c-.28-1.57-2.11-2.79-4.34-2.79a4.67,4.67,0,0,0-4,1.9,3.61,3.61,0,0,0-2.83-1.27,3.37,3.37,0,0,0-3.28,2.12,6.82,6.82,0,0,0-2-.29,6.46,6.46,0,0,0-1,.08A3.42,3.42,0,0,0,24,46.22a3.5,3.5,0,0,0-3.06,1.62A7.14,7.14,0,0,0,17.34,47a8.1,8.1,0,0,0-2.28.32,4.75,4.75,0,0,0-3.87-1.71,5.51,5.51,0,0,0-2.27.47V46a2.42,2.42,0,0,1,2.42-2.43H52.49A2.43,2.43,0,0,1,54.92,46Z"></path><path fill="#5bb462" d="M56.54,49.16c0,1.57-1.74,2.85-3.89,2.85H11.19c-2.43,0-4.4-1.44-4.4-3.21a3.14,3.14,0,0,1,2.13-2.74,5.51,5.51,0,0,1,2.27-.47,4.75,4.75,0,0,1,3.87,1.71A8.1,8.1,0,0,1,17.34,47a7.14,7.14,0,0,1,3.58.86A3.5,3.5,0,0,1,24,46.22a3.42,3.42,0,0,1,3.21,1.91,6.46,6.46,0,0,1,1-.08,6.82,6.82,0,0,1,2,.29,3.37,3.37,0,0,1,3.28-2.12,3.61,3.61,0,0,1,2.83,1.27,4.67,4.67,0,0,1,4-1.9c2.23,0,4.06,1.22,4.34,2.79a6.74,6.74,0,0,1,2.15-.33,6.89,6.89,0,0,1,2.12.32,3.92,3.92,0,0,1,3.73-2,4.88,4.88,0,0,1,2.27.54,2.69,2.69,0,0,1,1.62,2.3Z"></path><path fill="#996650" d="M56.54,38.78v1.76a3,3,0,0,1-3,3H9.81a3,3,0,0,1-3-3V38.78a3,3,0,0,1,3-3H37.58a48.81,48.81,0,0,1,3.69,4.4,2.92,2.92,0,0,0,2.32,1.14,3,3,0,0,0,2.32-1.14,47.21,47.21,0,0,1,3.69-4.4h3.92a3,3,0,0,1,3,3Z"></path><path fill="#dfd52c" d="M54.7,33.22v1.83a.7.7,0,0,1-.7.71H49.6a47.21,47.21,0,0,0-3.69,4.4,3,3,0,0,1-2.32,1.14,2.92,2.92,0,0,1-2.32-1.14,48.81,48.81,0,0,0-3.69-4.4H9.81a.71.71,0,0,1-.67-.71V33.22a.7.7,0,0,1,.7-.71H54a.7.7,0,0,1,.7.71Z"></path><path fill="#1d1d1b" d="M32.92,15.72V4.16a1,1,0,1,0-2,0V15.72a1,1,0,1,0,2,0Z"></path><path fill="#e83c4d" d="M19,7.87l11.65,3.37a1,1,0,0,0,1.24-.93V3.58a1,1,0,0,0-1.24-.93L19,6A1,1,0,0,0,19,7.87Z"></path><path fill="#d0d0d0" d="M6.79,48.91Zm0,0Zm0,0Zm0,0Zm0,0Zm0,0Zm0,0Zm0,0v0Zm8-5.24H11.34A2.42,2.42,0,0,0,8.92,46h0a2.42,2.42,0,0,1,2.42-2.43Zm-1.53-7.8H9.81a3,3,0,0,0-3,3h0a3,3,0,0,1,3-3Zm11.48-20H21.29A12.37,12.37,0,0,0,8.92,28.09,12.37,12.37,0,0,1,21.29,15.72Z"></path><path fill="#b98638" d="M24.7 15.72H21.29A12.37 12.37 0 008.92 28.09v1.53a2.88 2.88 0 002.88 2.89h3.41a2.88 2.88 0 01-2.88-2.89V28.09A12.37 12.37 0 0124.7 15.72zM11 52h-.49a1.59 1.59 0 00-1.58 1.37v4.49a2.88 2.88 0 002.88 2.88h3.41a2.88 2.88 0 01-2.88-2.88V53.6A1.59 1.59 0 0113.82 52H11z"></path><path fill="#bb333e" d="M14.75,43.56H11.34A2.42,2.42,0,0,0,8.92,46v.07a5.51,5.51,0,0,1,2.27-.47,6.25,6.25,0,0,1,1.16.11,2.42,2.42,0,0,1,2.4-2.14Z"></path><path fill="#4c9450" d="M11.19,45.59a5.51,5.51,0,0,0-2.27.47A3.14,3.14,0,0,0,6.79,48.8v0h0v0h0c.08,1.71,2,3.08,4.36,3.1h3.41c-2.41,0-4.36-1.45-4.36-3.21a3.14,3.14,0,0,1,2.13-2.74V46a2.83,2.83,0,0,1,0-.29,6.25,6.25,0,0,0-1.16-.11Z"></path><path fill="#7e5441" d="M13.22,35.76H9.81a3,3,0,0,0-3,3v1.76a3,3,0,0,0,3,3h3.41a3,3,0,0,1-3-3V38.78a3,3,0,0,1,3-3Z"></path><path fill="#b4ae25" d="M13.25,32.51H9.84a.7.7,0,0,0-.7.71v1.83a.71.71,0,0,0,.67.71h3.41a.71.71,0,0,1-.67-.71V33.22a.7.7,0,0,1,.7-.71Z"></path><path fill="#fff" d="M56.54,49.29Zm0,0Zm0,0Zm0,0Zm0,0Zm0,0Zm0,0Zm0,0Zm0,0Zm0,0h0Zm0,0h0Zm0,0h0Zm0,0v0Zm-4-5.6h0A2.43,2.43,0,0,1,54.92,46v.87a2.69,2.69,0,0,1,1.62,2.3,2.69,2.69,0,0,0-1.62-2.3V46a2.43,2.43,0,0,0-2.43-2.43Zm1-7.8h0a3,3,0,0,1,3,3v0a3,3,0,0,0-3-3Z"></path><path fill="#fff484" d="M42.54 15.72H39.39A12.37 12.37 0 0151.76 28.09v1.53a2.89 2.89 0 01-2.89 2.89H52a2.89 2.89 0 002.89-2.89V28.09A12.37 12.37 0 0042.54 15.72zM53.32 52H50.26a1.59 1.59 0 011.5 1.59v4.27a2.88 2.88 0 01-2.89 2.88H52a2.89 2.89 0 002.89-2.88V53.6A1.6 1.6 0 0053.32 52z"></path><path fill="#ec6289" d="M52.49,43.56H49.33A2.43,2.43,0,0,1,51.76,46v.4a6.42,6.42,0,0,1,.89-.07,4.88,4.88,0,0,1,2.27.54V46a2.43,2.43,0,0,0-2.43-2.43Z"></path><path fill="#bed892" d="M52.65,46.32a6.42,6.42,0,0,0-.89.07v.47a2.69,2.69,0,0,1,1.62,2.3c0,1.56-1.72,2.83-3.85,2.85h3.16c2.07,0,3.76-1.22,3.85-2.72h0v0a2.69,2.69,0,0,0-1.62-2.3,4.88,4.88,0,0,0-2.27-.54Z"></path><path fill="#fee4ca" d="M53.52,35.76H50.36a3,3,0,0,1,3,3v1.76a3,3,0,0,1-3,3h3.16a3,3,0,0,0,3-3V38.78a3,3,0,0,0-3-3Z"></path><path fill="#fff04a" d="M54,32.51H50.84a.7.7,0,0,1,.7.71v1.83a.7.7,0,0,1-.7.71H54a.7.7,0,0,0,.7-.71V33.22a.7.7,0,0,0-.7-.71Z"></path><path fill="#1d1d1b" d="M52 33.51H11.8a3.89 3.89 0 01-3.88-3.89V28.09A13.38 13.38 0 0121.29 14.72H42.54A13.39 13.39 0 0155.92 28.09v1.53A3.89 3.89 0 0152 33.51zM21.29 16.72A11.38 11.38 0 009.92 28.09v1.53a1.89 1.89 0 001.88 1.89H52a1.89 1.89 0 001.89-1.89V28.09A11.39 11.39 0 0042.54 16.72zM52 61.75H11.8a3.88 3.88 0 01-3.88-3.88V53.6A2.59 2.59 0 0110.51 51H53.32a2.6 2.6 0 012.6 2.59v4.27A3.89 3.89 0 0152 61.75zM10.51 53a.58.58 0 00-.59.59v4.27a1.88 1.88 0 001.88 1.88H52a1.89 1.89 0 001.89-1.88V53.6a.59.59 0 00-.6-.59zM44.65 49.38a1 1 0 01-.51-.14 1 1 0 01-.47-.69c-.2-1.1-1.67-2-3.36-2A3.7 3.7 0 0037.15 48a1 1 0 01-1.63.11 2.63 2.63 0 00-2.05-.9 2.38 2.38 0 00-2.33 1.43 1 1 0 01-1.24.65 5.47 5.47 0 00-2.56-.18 1 1 0 01-1.07-.6A2.43 2.43 0 0024 47.22a2.52 2.52 0 00-2.2 1.12 1 1 0 01-.61.47 1 1 0 01-.76-.11 7 7 0 00-5.07-.44 1 1 0 01-1.09-.37 3.78 3.78 0 00-3.06-1.3A4.51 4.51 0 009.33 47a1 1 0 01-.95-.07 1 1 0 01-.46-.84 3.44 3.44 0 013.42-3.5H52.49A3.44 3.44 0 0155.92 46v.87a1 1 0 01-1.47.88 3.92 3.92 0 00-1.8-.42 3 3 0 00-2.8 1.43 1 1 0 01-1.24.57 6.27 6.27 0 00-3.64 0A1.13 1.13 0 0144.65 49.38zm2.15-2.33a8.07 8.07 0 011.64.16 5.23 5.23 0 014.21-1.89 6.23 6.23 0 011.15.11 1.42 1.42 0 00-1.31-.87H11.34a1.53 1.53 0 00-.3 0 6.06 6.06 0 014.37 1.59 9.33 9.33 0 015.22.4A4.68 4.68 0 0124 45.22a4.54 4.54 0 013.76 1.84 8.12 8.12 0 011.91.12 4.55 4.55 0 013.82-2 4.87 4.87 0 012.74.83 6.06 6.06 0 014.1-1.46 5.51 5.51 0 015 2.59A9.13 9.13 0 0146.8 47.05z"></path><path fill="#1d1d1b" d="M52.65,53H11.19c-3,0-5.4-1.89-5.4-4.21a4.13,4.13,0,0,1,2.74-3.66,6.42,6.42,0,0,1,2.66-.55,5.93,5.93,0,0,1,4.22,1.59,9.33,9.33,0,0,1,5.22.4A4.68,4.68,0,0,1,24,45.22a4.54,4.54,0,0,1,3.76,1.84,8.12,8.12,0,0,1,1.91.12,4.55,4.55,0,0,1,3.82-2,4.87,4.87,0,0,1,2.74.83,6.06,6.06,0,0,1,4.1-1.46,5.51,5.51,0,0,1,5,2.59,8.78,8.78,0,0,1,3.15,0,5.23,5.23,0,0,1,4.21-1.89,5.87,5.87,0,0,1,2.74.66,3.67,3.67,0,0,1,2.15,3.18C57.54,51.28,55.35,53,52.65,53ZM11.19,46.59A4.51,4.51,0,0,0,9.33,47,2.19,2.19,0,0,0,7.79,48.8C7.79,50,9.35,51,11.19,51H52.65c1.57,0,2.89-.85,2.89-1.85a1.72,1.72,0,0,0-1.08-1.41,3.87,3.87,0,0,0-1.81-.43,3,3,0,0,0-2.8,1.43,1,1,0,0,1-1.24.57,6.27,6.27,0,0,0-3.64,0,1,1,0,0,1-1.3-.78c-.2-1.1-1.67-2-3.36-2A3.7,3.7,0,0,0,37.15,48a1,1,0,0,1-1.63.11,2.63,2.63,0,0,0-2.05-.9,2.38,2.38,0,0,0-2.33,1.43,1,1,0,0,1-1.24.65,5.47,5.47,0,0,0-2.56-.18,1,1,0,0,1-1.07-.6A2.43,2.43,0,0,0,24,47.22a2.52,2.52,0,0,0-2.2,1.12,1,1,0,0,1-.61.47,1,1,0,0,1-.76-.11,7,7,0,0,0-5.07-.44,1,1,0,0,1-1.09-.37A3.78,3.78,0,0,0,11.19,46.59Z"></path><path fill="#1d1d1b" d="M53.52,44.56H9.81a4,4,0,0,1-4-4V38.78a4,4,0,0,1,4-4H37.58a1,1,0,0,1,.71.3,47.81,47.81,0,0,1,3.65,4.33l.12.16a2,2,0,0,0,3.06,0,49,49,0,0,1,3.77-4.48,1,1,0,0,1,.71-.3h3.92a4,4,0,0,1,4,4v1.76A4,4,0,0,1,53.52,44.56ZM9.81,36.76a2,2,0,0,0-2,2v1.76a2,2,0,0,0,2,2H53.52a2,2,0,0,0,2-2V38.78a2,2,0,0,0-2-2H50c-1.22,1.29-2.33,2.73-3.32,4a3.93,3.93,0,0,1-3.11,1.53,3.89,3.89,0,0,1-3.11-1.53l-.12-.15a49.67,49.67,0,0,0-3.2-3.86Z"></path><path fill="#1d1d1b" d="M43.59 42.3a3.89 3.89 0 01-3.11-1.53l-.12-.15a49.67 49.67 0 00-3.2-3.86H9.81a1.72 1.72 0 01-1.67-1.71V33.22a1.71 1.71 0 011.7-1.71H54a1.71 1.71 0 011.7 1.71v1.83A1.71 1.71 0 0154 36.76H50c-1.22 1.29-2.33 2.73-3.32 4A3.93 3.93 0 0143.59 42.3zm-6-7.54a1 1 0 01.71.3 47.81 47.81 0 013.65 4.33l.12.16a2 2 0 003.06 0 49 49 0 013.77-4.48 1 1 0 01.71-.3h4.1V33.51H10.14v1.25zM31.92 16.72a1 1 0 01-1-1V4.16a1 1 0 112 0V15.72A1 1 0 0131.92 16.72z"></path><path fill="#1d1d1b" d="M31,12.28a2.09,2.09,0,0,1-.55-.08L18.75,8.83a2,2,0,0,1,0-3.78L30.4,1.68a2,2,0,0,1,2.52,1.9v6.73a2,2,0,0,1-2,2ZM19.41,6.94,31,10.28l0-6.7Z"></path></svg>